<svg width="110" height="110" viewBox="0 0 110 110" xmlns="http://www.w3.org/2000/svg">
<path d="M55 9.16666C67.1557 9.16666 78.8136 13.9955 87.409 22.5909C96.0044 31.1863 100.833 42.8442 100.833 55C100.833 61.0189 99.6478 66.9789 97.3444 72.5396C95.0411 78.1004 91.665 83.153 87.409 87.4091C83.153 91.6651 78.1004 95.0411 72.5396 97.3445C66.9789 99.6478 61.0189 100.833 55 100.833C42.8442 100.833 31.1863 96.0045 22.5909 87.4091C13.9955 78.8136 9.16663 67.1557 9.16663 55C9.16663 42.8442 13.9955 31.1863 22.5909 22.5909C31.1863 13.9955 42.8442 9.16666 55 9.16666ZM55 18.3333C36.3 18.3333 20.8541 32.3125 18.6083 50.4167H37.2625C39.2791 42.4875 46.475 36.6667 55 36.6667C63.525 36.6667 70.7208 42.4875 72.7375 50.4167H91.3916C89.1458 32.3125 73.7 18.3333 55 18.3333ZM55 91.6667C73.7 91.6667 89.1458 77.6875 91.3916 59.5833H72.7375C70.7208 67.5125 63.525 73.3333 55 73.3333C46.475 73.3333 39.2791 67.5125 37.2625 59.5833H18.6083C20.8541 77.6875 36.3 91.6667 55 91.6667ZM55 45.8333C52.5688 45.8333 50.2372 46.7991 48.5181 48.5182C46.7991 50.2373 45.8333 52.5688 45.8333 55C45.8333 57.4311 46.7991 59.7627 48.5181 61.4818C50.2372 63.2009 52.5688 64.1667 55 64.1667C57.4311 64.1667 59.7627 63.2009 61.4818 61.4818C63.2009 59.7627 64.1666 57.4311 64.1666 55C64.1666 52.5688 63.2009 50.2373 61.4818 48.5182C59.7627 46.7991 57.4311 45.8333 55 45.8333Z"/>
</svg>
